<svg width="1720" height="140" viewBox="0 0 1720 140" fill="none" xmlns="http://www.w3.org/2000/svg">
<g style="mix-blend-mode:hard-light">
<path d="M0 92.0865H36.6479C37.268 105.98 46.0734 112.926 63.0641 112.926C69.2651 112.926 74.5359 111.798 78.8766 109.542C83.3413 107.286 85.5737 103.842 85.5737 99.2112C85.5737 96.955 84.8916 94.9958 83.5274 93.3333C82.2872 91.5522 80.0548 90.0085 76.8303 88.7023C73.7298 87.3961 70.9393 86.3868 68.4589 85.6743C66.1026 84.8431 62.258 83.8338 56.9251 82.6463C51.5923 81.3401 47.6856 80.3308 45.2052 79.6183C40.6165 78.3121 36.5859 77.0653 33.1133 75.8779C29.6407 74.5717 25.9822 72.8499 22.1375 70.7125C18.2929 68.5751 15.1304 66.2002 12.65 63.5878C10.1696 60.9754 8.1233 57.7099 6.51104 53.7914C4.89878 49.8728 4.09265 45.5386 4.09265 40.7888C4.09265 33.7829 5.76692 27.6081 9.11546 22.2646C12.588 16.8024 17.1767 12.5276 22.8817 9.4402C28.5866 6.2341 34.6635 3.8592 41.1126 2.31553C47.6856 0.77185 54.4447 0 61.3898 0C76.7683 0 89.9144 3.68109 100.828 11.0433C111.866 18.4054 117.447 29.1518 117.571 43.2824H80.9229C81.171 37.7014 79.0626 33.6047 74.5979 30.9924C70.2572 28.38 64.8624 27.0738 58.4133 27.0738C53.7006 27.0738 49.5459 28.0237 45.9493 29.9237C42.4768 31.7048 40.7405 34.6141 40.7405 38.6514C40.7405 40.6701 41.4226 42.4512 42.7868 43.9949C44.1511 45.4198 46.3214 46.726 49.2979 47.9135C52.3984 48.9822 55.3128 49.8728 58.0413 50.5852C60.7697 51.2977 64.5523 52.2477 69.3891 53.4351C74.3499 54.5038 78.3185 55.4538 81.295 56.285C87.1239 57.8287 92.1467 59.5505 96.3634 61.4504C100.704 63.2316 104.921 65.6064 109.013 68.5751C113.23 71.4249 116.455 75.106 118.687 79.6183C120.919 84.1306 122.036 89.296 122.036 95.1145C122.036 103.308 120.299 110.433 116.827 116.489C113.478 122.426 108.827 127.057 102.874 130.382C96.9215 133.707 90.4725 136.141 83.5274 137.684C76.7063 139.228 69.2031 140 61.0178 140C43.4069 140 28.8346 136.081 17.3008 128.244C5.89094 120.288 0.12402 108.236 0 92.0865ZM339.098 50.7634H302.636C301.52 44.1137 298.42 39.0076 293.335 35.4453C288.374 31.8829 281.987 30.1018 274.174 30.1018C266.733 30.1018 260.47 32.1204 255.385 36.1578C250.3 40.0763 246.703 44.9449 244.595 50.7634C242.611 56.4631 241.619 62.8753 241.619 70C241.619 77.1247 242.611 83.5963 244.595 89.4148C246.703 95.1145 250.3 99.983 255.385 104.02C260.47 107.939 266.733 109.898 274.174 109.898C282.607 109.898 289.242 107.701 294.079 103.308C299.04 98.9143 301.892 92.8584 302.636 85.1399H339.098C338.106 102.12 331.657 115.539 319.751 125.394C307.969 135.131 293.025 140 274.918 140C254.083 140 237.216 133.35 224.318 120.051C211.42 106.633 204.971 89.9491 204.971 70C204.971 50.1696 211.42 33.5454 224.318 20.1272C237.216 6.70908 254.083 0 274.918 0C285.336 0 295.257 1.95928 304.683 5.87786C314.232 9.67769 322.231 15.5556 328.68 23.5114C335.254 31.4673 338.726 40.5513 339.098 50.7634ZM486.012 40.0763L470.017 87.0992H501.828L486.387 40.0763H486.012ZM415.135 137.15L467.598 2.84988H504.804L557.264 137.15H519.128L510.571 113.104H461.642L452.716 137.15H415.135ZM639.862 137.15V2.84988H677.437L726.362 85.6743H726.735V2.84988H761.15V137.15H723.575L674.649 53.4351H674.274V137.15H639.862ZM859.135 137.15V2.84988H919.409C940.864 2.84988 957.669 8.78711 969.823 20.6616C981.977 32.4173 988.054 48.6853 988.054 69.4656C988.054 91.1959 981.977 107.939 969.823 119.695C957.793 131.332 940.988 137.15 919.409 137.15H859.135ZM895.597 32.9517V107.048H912.898C926.788 106.811 936.709 103.842 942.662 98.1425C948.615 92.324 951.592 82.7057 951.592 69.2875C951.592 57.1756 948.305 48.0916 941.732 42.0356C935.159 35.9796 925.548 32.9517 912.898 32.9517H895.597ZM1134.94 40.0763L1118.94 87.0992H1150.75L1135.31 40.0763H1134.94ZM1064.06 137.15L1116.52 2.84988H1153.73L1206.19 137.15H1168.05L1159.49 113.104H1110.57L1101.64 137.15H1064.06ZM1288.78 137.15V2.84988H1325.24V107.048H1390.73V137.15H1288.78ZM1472.09 137.15V2.84988H1508.55V137.15H1472.09ZM1597.96 92.0865H1634.61C1635.23 105.98 1644.04 112.926 1661.03 112.926C1667.23 112.926 1672.5 111.798 1676.84 109.542C1681.31 107.286 1683.54 103.842 1683.54 99.2112C1683.54 96.955 1682.86 94.9958 1681.49 93.3333C1680.25 91.5522 1678.02 90.0085 1674.79 88.7023C1671.69 87.3961 1668.9 86.3868 1666.42 85.6743C1664.07 84.8431 1660.22 83.8338 1654.89 82.6463C1649.56 81.3401 1645.65 80.3308 1643.17 79.6183C1638.58 78.3121 1634.55 77.0653 1631.08 75.8779C1627.61 74.5717 1623.95 72.8499 1620.1 70.7125C1616.26 68.5751 1613.09 66.2002 1610.61 63.5878C1608.13 60.9754 1606.09 57.7099 1604.48 53.7914C1602.86 49.8728 1602.06 45.5386 1602.06 40.7888C1602.06 33.7829 1603.73 27.6081 1607.08 22.2646C1610.55 16.8024 1615.14 12.5276 1620.85 9.4402C1626.55 6.2341 1632.63 3.8592 1639.08 2.31553C1645.65 0.77185 1652.41 0 1659.35 0C1674.73 0 1687.88 3.68109 1698.79 11.0433C1709.83 18.4054 1715.41 29.1518 1715.54 43.2824H1678.89C1679.14 37.7014 1677.03 33.6047 1672.56 30.9924C1668.22 28.38 1662.83 27.0738 1656.38 27.0738C1651.67 27.0738 1647.51 28.0237 1643.91 29.9237C1640.44 31.7048 1638.71 34.6141 1638.71 38.6514C1638.71 40.6701 1639.39 42.4512 1640.75 43.9949C1642.12 45.4198 1644.29 46.726 1647.26 47.9135C1650.36 48.9822 1653.28 49.8728 1656.01 50.5852C1658.73 51.2977 1662.52 52.2477 1667.35 53.4351C1672.31 54.5038 1676.28 55.4538 1679.26 56.285C1685.09 57.8287 1690.11 59.5505 1694.33 61.4504C1698.67 63.2316 1702.89 65.6064 1706.98 68.5751C1711.19 71.4249 1714.42 75.106 1716.65 79.6183C1718.88 84.1306 1720 89.296 1720 95.1145C1720 103.308 1718.26 110.433 1714.79 116.489C1711.44 122.426 1706.79 127.057 1700.84 130.382C1694.89 133.707 1688.44 136.141 1681.49 137.684C1674.67 139.228 1667.17 140 1658.98 140C1641.37 140 1626.8 136.081 1615.27 128.244C1603.86 120.288 1598.09 108.236 1597.96 92.0865Z" fill="#191919"/>
</g>
</svg>
