<svg width="430" height="36" viewBox="0 0 430 36" fill="none" xmlns="http://www.w3.org/2000/svg">
<path d="M0.5 23.6794H9.64066C9.79532 27.2519 11.9916 29.0382 16.2294 29.0382C17.776 29.0382 19.0906 28.7481 20.1733 28.1679C21.2869 27.5878 21.8437 26.7023 21.8437 25.5114C21.8437 24.9313 21.6735 24.4275 21.3333 24C21.0239 23.542 20.4672 23.145 19.6629 22.8092C18.8896 22.4733 18.1936 22.2137 17.5749 22.0305C16.9872 21.8168 16.0283 21.5573 14.6982 21.2519C13.3681 20.916 12.3937 20.6565 11.775 20.4733C10.6305 20.1374 9.62519 19.8168 8.75907 19.5115C7.89295 19.1756 6.98043 18.7328 6.02151 18.1832C5.0626 17.6336 4.27381 17.0229 3.65515 16.3511C3.03649 15.6794 2.5261 14.8397 2.12397 13.8321C1.72185 12.8244 1.52078 11.7099 1.52078 10.4886C1.52078 8.68702 1.93838 7.09924 2.77356 5.72519C3.63968 4.32061 4.7842 3.22137 6.20711 2.42748C7.63002 1.60305 9.14573 0.992366 10.7542 0.595422C12.3937 0.198476 14.0795 0 15.8118 0C19.6474 0 22.9263 0.946565 25.6484 2.83969C28.4014 4.73282 29.7934 7.49618 29.8243 11.1298H20.6837C20.7456 9.69466 20.2197 8.64122 19.1061 7.96947C18.0235 7.29771 16.6779 6.96183 15.0694 6.96183C13.8939 6.96183 12.8577 7.20611 11.9606 7.69466C11.0945 8.15267 10.6614 8.90076 10.6614 9.93893C10.6614 10.458 10.8316 10.916 11.1718 11.313C11.5121 11.6794 12.0534 12.0153 12.7958 12.3206C13.5691 12.5954 14.2961 12.8244 14.9766 13.0076C15.6571 13.1908 16.6005 13.4351 17.8069 13.7405C19.0442 14.0153 20.0341 14.2595 20.7765 14.4733C22.2303 14.8702 23.4831 15.313 24.5348 15.8015C25.6175 16.2595 26.6692 16.8702 27.69 17.6336C28.7417 18.3664 29.5459 19.313 30.1027 20.4733C30.6595 21.6336 30.9379 22.9618 30.9379 24.458C30.9379 26.5649 30.5049 28.3969 29.6387 29.9542C28.8036 31.4809 27.6436 32.6718 26.1588 33.5267C24.674 34.3817 23.0655 35.0076 21.3333 35.4046C19.632 35.8015 17.7605 36 15.719 36C11.3265 36 7.69189 34.9924 4.81513 32.9771C1.96931 30.9313 0.530933 27.8321 0.5 23.6794ZM85.0774 13.0534H75.9831C75.7047 11.3435 74.9314 10.0305 73.6632 9.1145C72.4258 8.19847 70.8328 7.74046 68.884 7.74046C67.0281 7.74046 65.466 8.25954 64.1977 9.29771C62.9295 10.3053 62.0324 11.5573 61.5065 13.0534C61.0116 14.5191 60.7642 16.1679 60.7642 18C60.7642 19.8321 61.0116 21.4962 61.5065 22.9924C62.0324 24.458 62.9295 25.7099 64.1977 26.7481C65.466 27.7557 67.0281 28.2595 68.884 28.2595C70.9875 28.2595 72.6424 27.6947 73.8488 26.5649C75.0861 25.4351 75.7975 23.8779 75.9831 21.8931H85.0774C84.8299 26.2595 83.2214 29.7099 80.2519 32.2443C77.3132 34.7481 73.5858 36 69.0696 36C63.8729 36 59.666 34.2901 56.449 30.8702C53.232 27.4198 51.6235 23.1298 51.6235 18C51.6235 12.9008 53.232 8.62595 56.449 5.17557C59.666 1.72519 63.8729 0 69.0696 0C71.668 0 74.1426 0.503814 76.4935 1.51145C78.8753 2.48855 80.8705 4 82.479 6.0458C84.1185 8.0916 84.9846 10.4275 85.0774 13.0534ZM121.72 10.3053L117.731 22.3969H125.665L121.814 10.3053H121.72ZM104.042 35.2672L117.128 0.732826H126.408L139.492 35.2672H129.98L127.846 29.084H115.642L113.416 35.2672H104.042ZM160.093 35.2672V0.732826H169.465L181.668 22.0305H181.761V0.732826H190.345V35.2672H180.973L168.77 13.7405H168.677V35.2672H160.093ZM214.784 35.2672V0.732826H229.818C235.169 0.732826 239.36 2.25954 242.392 5.31298C245.423 8.33588 246.939 12.5191 246.939 17.8626C246.939 23.4504 245.423 27.7557 242.392 30.7786C239.391 33.771 235.2 35.2672 229.818 35.2672H214.784ZM223.878 8.47328V27.5267H228.194C231.658 27.4657 234.133 26.7023 235.618 25.2366C237.102 23.7405 237.845 21.2672 237.845 17.8168C237.845 14.7023 237.025 12.3664 235.386 10.8092C233.746 9.25191 231.349 8.47328 228.194 8.47328H223.878ZM283.574 10.3053L279.584 22.3969H287.518L283.667 10.3053H283.574ZM265.896 35.2672L278.981 0.732826H288.261L301.345 35.2672H291.833L289.699 29.084H277.496L275.269 35.2672H265.896ZM321.946 35.2672V0.732826H331.041V27.5267H347.373V35.2672H321.946ZM367.666 35.2672V0.732826H376.76V35.2672H367.666ZM399.062 23.6794H408.203C408.357 27.2519 410.554 29.0382 414.791 29.0382C416.338 29.0382 417.653 28.7481 418.735 28.1679C419.849 27.5878 420.406 26.7023 420.406 25.5114C420.406 24.9313 420.236 24.4275 419.895 24C419.586 23.542 419.029 23.145 418.225 22.8092C417.452 22.4733 416.756 22.2137 416.137 22.0305C415.549 21.8168 414.59 21.5573 413.26 21.2519C411.93 20.916 410.956 20.6565 410.337 20.4733C409.193 20.1374 408.187 19.8168 407.321 19.5115C406.455 19.1756 405.543 18.7328 404.584 18.1832C403.625 17.6336 402.836 17.0229 402.217 16.3511C401.599 15.6794 401.088 14.8397 400.686 13.8321C400.284 12.8244 400.083 11.7099 400.083 10.4886C400.083 8.68702 400.5 7.09924 401.336 5.72519C402.202 4.32061 403.346 3.22137 404.769 2.42748C406.192 1.60305 407.708 0.992366 409.316 0.595422C410.956 0.198476 412.642 0 414.374 0C418.21 0 421.488 0.946565 424.21 2.83969C426.964 4.73282 428.355 7.49618 428.386 11.1298H419.246C419.308 9.69466 418.782 8.64122 417.668 7.96947C416.586 7.29771 415.24 6.96183 413.631 6.96183C412.456 6.96183 411.42 7.20611 410.523 7.69466C409.657 8.15267 409.224 8.90076 409.224 9.93893C409.224 10.458 409.394 10.916 409.734 11.313C410.074 11.6794 410.615 12.0153 411.358 12.3206C412.131 12.5954 412.858 12.8244 413.539 13.0076C414.219 13.1908 415.163 13.4351 416.369 13.7405C417.606 14.0153 418.596 14.2595 419.339 14.4733C420.792 14.8702 422.045 15.313 423.097 15.8015C424.18 16.2595 425.231 16.8702 426.252 17.6336C427.304 18.3664 428.108 19.313 428.665 20.4733C429.222 21.6336 429.5 22.9618 429.5 24.458C429.5 26.5649 429.067 28.3969 428.201 29.9542C427.366 31.4809 426.206 32.6718 424.721 33.5267C423.236 34.3817 421.628 35.0076 419.895 35.4046C418.194 35.8015 416.323 36 414.281 36C409.889 36 406.254 34.9924 403.377 32.9771C400.531 30.9313 399.093 27.8321 399.062 23.6794Z" fill="#020202"/>
<path d="M0.5 23.6794H9.64066C9.79532 27.2519 11.9916 29.0382 16.2294 29.0382C17.776 29.0382 19.0906 28.7481 20.1733 28.1679C21.2869 27.5878 21.8437 26.7023 21.8437 25.5114C21.8437 24.9313 21.6735 24.4275 21.3333 24C21.0239 23.542 20.4672 23.145 19.6629 22.8092C18.8896 22.4733 18.1936 22.2137 17.5749 22.0305C16.9872 21.8168 16.0283 21.5573 14.6982 21.2519C13.3681 20.916 12.3937 20.6565 11.775 20.4733C10.6305 20.1374 9.62519 19.8168 8.75907 19.5115C7.89295 19.1756 6.98043 18.7328 6.02151 18.1832C5.0626 17.6336 4.27381 17.0229 3.65515 16.3511C3.03649 15.6794 2.5261 14.8397 2.12397 13.8321C1.72185 12.8244 1.52078 11.7099 1.52078 10.4886C1.52078 8.68702 1.93838 7.09924 2.77356 5.72519C3.63968 4.32061 4.7842 3.22137 6.20711 2.42748C7.63002 1.60305 9.14573 0.992366 10.7542 0.595422C12.3937 0.198476 14.0795 0 15.8118 0C19.6474 0 22.9263 0.946565 25.6484 2.83969C28.4014 4.73282 29.7934 7.49618 29.8243 11.1298H20.6837C20.7456 9.69466 20.2197 8.64122 19.1061 7.96947C18.0235 7.29771 16.6779 6.96183 15.0694 6.96183C13.8939 6.96183 12.8577 7.20611 11.9606 7.69466C11.0945 8.15267 10.6614 8.90076 10.6614 9.93893C10.6614 10.458 10.8316 10.916 11.1718 11.313C11.5121 11.6794 12.0534 12.0153 12.7958 12.3206C13.5691 12.5954 14.2961 12.8244 14.9766 13.0076C15.6571 13.1908 16.6005 13.4351 17.8069 13.7405C19.0442 14.0153 20.0341 14.2595 20.7765 14.4733C22.2303 14.8702 23.4831 15.313 24.5348 15.8015C25.6175 16.2595 26.6692 16.8702 27.69 17.6336C28.7417 18.3664 29.5459 19.313 30.1027 20.4733C30.6595 21.6336 30.9379 22.9618 30.9379 24.458C30.9379 26.5649 30.5049 28.3969 29.6387 29.9542C28.8036 31.4809 27.6436 32.6718 26.1588 33.5267C24.674 34.3817 23.0655 35.0076 21.3333 35.4046C19.632 35.8015 17.7605 36 15.719 36C11.3265 36 7.69189 34.9924 4.81513 32.9771C1.96931 30.9313 0.530933 27.8321 0.5 23.6794ZM85.0774 13.0534H75.9831C75.7047 11.3435 74.9314 10.0305 73.6632 9.1145C72.4258 8.19847 70.8328 7.74046 68.884 7.74046C67.0281 7.74046 65.466 8.25954 64.1977 9.29771C62.9295 10.3053 62.0324 11.5573 61.5065 13.0534C61.0116 14.5191 60.7642 16.1679 60.7642 18C60.7642 19.8321 61.0116 21.4962 61.5065 22.9924C62.0324 24.458 62.9295 25.7099 64.1977 26.7481C65.466 27.7557 67.0281 28.2595 68.884 28.2595C70.9875 28.2595 72.6424 27.6947 73.8488 26.5649C75.0861 25.4351 75.7975 23.8779 75.9831 21.8931H85.0774C84.8299 26.2595 83.2214 29.7099 80.2519 32.2443C77.3132 34.7481 73.5858 36 69.0696 36C63.8729 36 59.666 34.2901 56.449 30.8702C53.232 27.4198 51.6235 23.1298 51.6235 18C51.6235 12.9008 53.232 8.62595 56.449 5.17557C59.666 1.72519 63.8729 0 69.0696 0C71.668 0 74.1426 0.503814 76.4935 1.51145C78.8753 2.48855 80.8705 4 82.479 6.0458C84.1185 8.0916 84.9846 10.4275 85.0774 13.0534ZM121.72 10.3053L117.731 22.3969H125.665L121.814 10.3053H121.72ZM104.042 35.2672L117.128 0.732826H126.408L139.492 35.2672H129.98L127.846 29.084H115.642L113.416 35.2672H104.042ZM160.093 35.2672V0.732826H169.465L181.668 22.0305H181.761V0.732826H190.345V35.2672H180.973L168.77 13.7405H168.677V35.2672H160.093ZM214.784 35.2672V0.732826H229.818C235.169 0.732826 239.36 2.25954 242.392 5.31298C245.423 8.33588 246.939 12.5191 246.939 17.8626C246.939 23.4504 245.423 27.7557 242.392 30.7786C239.391 33.771 235.2 35.2672 229.818 35.2672H214.784ZM223.878 8.47328V27.5267H228.194C231.658 27.4657 234.133 26.7023 235.618 25.2366C237.102 23.7405 237.845 21.2672 237.845 17.8168C237.845 14.7023 237.025 12.3664 235.386 10.8092C233.746 9.25191 231.349 8.47328 228.194 8.47328H223.878ZM283.574 10.3053L279.584 22.3969H287.518L283.667 10.3053H283.574ZM265.896 35.2672L278.981 0.732826H288.261L301.345 35.2672H291.833L289.699 29.084H277.496L275.269 35.2672H265.896ZM321.946 35.2672V0.732826H331.041V27.5267H347.373V35.2672H321.946ZM367.666 35.2672V0.732826H376.76V35.2672H367.666ZM399.062 23.6794H408.203C408.357 27.2519 410.554 29.0382 414.791 29.0382C416.338 29.0382 417.653 28.7481 418.735 28.1679C419.849 27.5878 420.406 26.7023 420.406 25.5114C420.406 24.9313 420.236 24.4275 419.895 24C419.586 23.542 419.029 23.145 418.225 22.8092C417.452 22.4733 416.756 22.2137 416.137 22.0305C415.549 21.8168 414.59 21.5573 413.26 21.2519C411.93 20.916 410.956 20.6565 410.337 20.4733C409.193 20.1374 408.187 19.8168 407.321 19.5115C406.455 19.1756 405.543 18.7328 404.584 18.1832C403.625 17.6336 402.836 17.0229 402.217 16.3511C401.599 15.6794 401.088 14.8397 400.686 13.8321C400.284 12.8244 400.083 11.7099 400.083 10.4886C400.083 8.68702 400.5 7.09924 401.336 5.72519C402.202 4.32061 403.346 3.22137 404.769 2.42748C406.192 1.60305 407.708 0.992366 409.316 0.595422C410.956 0.198476 412.642 0 414.374 0C418.21 0 421.488 0.946565 424.21 2.83969C426.964 4.73282 428.355 7.49618 428.386 11.1298H419.246C419.308 9.69466 418.782 8.64122 417.668 7.96947C416.586 7.29771 415.24 6.96183 413.631 6.96183C412.456 6.96183 411.42 7.20611 410.523 7.69466C409.657 8.15267 409.224 8.90076 409.224 9.93893C409.224 10.458 409.394 10.916 409.734 11.313C410.074 11.6794 410.615 12.0153 411.358 12.3206C412.131 12.5954 412.858 12.8244 413.539 13.0076C414.219 13.1908 415.163 13.4351 416.369 13.7405C417.606 14.0153 418.596 14.2595 419.339 14.4733C420.792 14.8702 422.045 15.313 423.097 15.8015C424.18 16.2595 425.231 16.8702 426.252 17.6336C427.304 18.3664 428.108 19.313 428.665 20.4733C429.222 21.6336 429.5 22.9618 429.5 24.458C429.5 26.5649 429.067 28.3969 428.201 29.9542C427.366 31.4809 426.206 32.6718 424.721 33.5267C423.236 34.3817 421.628 35.0076 419.895 35.4046C418.194 35.8015 416.323 36 414.281 36C409.889 36 406.254 34.9924 403.377 32.9771C400.531 30.9313 399.093 27.8321 399.062 23.6794Z" fill="url(#paint0_linear_1555_8310)"/>
<defs>
<linearGradient id="paint0_linear_1555_8310" x1="0.500006" y1="-127.5" x2="305.227" y2="49.0706" gradientUnits="userSpaceOnUse">
<stop/>
<stop offset="0.593726" stop-color="#BFBFBF"/>
<stop offset="1"/>
</linearGradient>
</defs>
</svg>
