<svg width="44" height="44" viewBox="0 0 44 44" fill="none" xmlns="http://www.w3.org/2000/svg">
<rect width="44" height="44" rx="22" fill="#020202"/>
<path d="M30.3798 13.46L25.9998 12C25.9998 13.0609 25.5784 14.0783 24.8282 14.8284C24.0781 15.5786 23.0607 16 21.9998 16C20.9389 16 19.9215 15.5786 19.1714 14.8284C18.4212 14.0783 17.9998 13.0609 17.9998 12L13.6198 13.46C13.1672 13.6108 12.7834 13.9184 12.5377 14.3273C12.2919 14.7363 12.2005 15.2196 12.2798 15.69L12.8598 19.16C12.8979 19.3949 13.0185 19.6085 13.1999 19.7625C13.3814 19.9165 13.6118 20.0007 13.8498 20H15.9998V30C15.9998 31.1 16.8998 32 17.9998 32H25.9998C26.5302 32 27.0389 31.7893 27.414 31.4142C27.7891 31.0391 27.9998 30.5304 27.9998 30V20H30.1498C30.3878 20.0007 30.6182 19.9165 30.7997 19.7625C30.9811 19.6085 31.1017 19.3949 31.1398 19.16L31.7198 15.69C31.7991 15.2196 31.7077 14.7363 31.4619 14.3273C31.2162 13.9184 30.8324 13.6108 30.3798 13.46Z" fill="#2E2E2E" stroke="url(#paint0_linear_2330_29884)" stroke-linecap="round" stroke-linejoin="round"/>
<defs>
<linearGradient id="paint0_linear_2330_29884" x1="-17.3237" y1="-18.333" x2="-0.469612" y2="-28.4962" gradientUnits="userSpaceOnUse">
<stop stop-color="#B2B2B2"/>
<stop offset="0.476768" stop-color="white"/>
<stop offset="1" stop-color="#9B9B9B"/>
</linearGradient>
</defs>
</svg>
