<svg width="209" height="18" viewBox="0 0 209 18" fill="none" xmlns="http://www.w3.org/2000/svg">
<path d="M0 11.8397H4.45314C4.52849 13.626 5.59845 14.5191 7.66302 14.5191C8.41651 14.5191 9.05698 14.374 9.58443 14.084C10.1269 13.7939 10.3982 13.3511 10.3982 12.7557C10.3982 12.4656 10.3153 12.2137 10.1495 12C9.99885 11.771 9.72759 11.5725 9.33577 11.4046C8.95903 11.2366 8.61996 11.1069 8.31856 11.0153C8.03223 10.9084 7.56507 10.7786 6.91706 10.626C6.26906 10.458 5.79436 10.3282 5.49296 10.2366C4.93538 10.0687 4.44561 9.9084 4.02365 9.75572C3.60169 9.58779 3.15713 9.36641 2.68997 9.0916C2.2228 8.81679 1.83852 8.51145 1.53712 8.17557C1.23573 7.83969 0.987075 7.41985 0.791167 6.91603C0.595259 6.41221 0.497305 5.85496 0.497305 5.24427C0.497305 4.34351 0.700748 3.54962 1.10763 2.8626C1.52959 2.16031 2.08717 1.61069 2.78039 1.21374C3.4736 0.801527 4.21202 0.496183 4.99566 0.297711C5.79436 0.0992378 6.61566 0 7.45958 0C9.32824 0 10.9256 0.473282 12.2518 1.41985C13.593 2.36641 14.2711 3.74809 14.2862 5.56489H9.83308C9.86322 4.84733 9.60703 4.32061 9.06452 3.98473C8.53707 3.64885 7.88153 3.48092 7.0979 3.48092C6.52525 3.48092 6.02041 3.60305 5.58338 3.84733C5.16142 4.07634 4.95045 4.45038 4.95045 4.96947C4.95045 5.22901 5.03333 5.45801 5.1991 5.65649C5.36487 5.83969 5.62859 6.00763 5.99027 6.16031C6.36701 6.29771 6.72115 6.41221 7.05269 6.50382C7.38423 6.59542 7.84386 6.71756 8.43158 6.87023C9.03438 7.00763 9.51661 7.12977 9.87829 7.23664C10.5866 7.43511 11.1969 7.65649 11.7093 7.90076C12.2367 8.12977 12.7491 8.43511 13.2464 8.81679C13.7588 9.18321 14.1506 9.65649 14.4218 10.2366C14.6931 10.8168 14.8287 11.4809 14.8287 12.229C14.8287 13.2824 14.6178 14.1985 14.1958 14.9771C13.7889 15.7405 13.2238 16.3359 12.5004 16.7634C11.7771 17.1908 10.9935 17.5038 10.1495 17.7023C9.3207 17.9008 8.40898 18 7.41437 18C5.27445 18 3.50374 17.4962 2.10224 16.4886C0.715818 15.4656 0.0150699 13.916 0 11.8397ZM41.2044 6.52672H36.7738C36.6382 5.67176 36.2615 5.01527 35.6436 4.55725C35.0408 4.09924 34.2647 3.87023 33.3153 3.87023C32.4111 3.87023 31.6501 4.12977 31.0322 4.64886C30.4144 5.15267 29.9773 5.77863 29.7211 6.52672C29.48 7.25954 29.3595 8.08397 29.3595 9C29.3595 9.91603 29.48 10.7481 29.7211 11.4962C29.9773 12.229 30.4144 12.855 31.0322 13.374C31.6501 13.8779 32.4111 14.1298 33.3153 14.1298C34.34 14.1298 35.1463 13.8473 35.734 13.2824C36.3368 12.7176 36.6834 11.9389 36.7738 10.9466H41.2044C41.0838 13.1298 40.3002 14.855 38.8535 16.1221C37.4218 17.374 35.6059 18 33.4057 18C30.874 18 28.8245 17.145 27.2572 15.4351C25.69 13.7099 24.9063 11.5649 24.9063 9C24.9063 6.45038 25.69 4.31298 27.2572 2.58779C28.8245 0.862595 30.874 0 33.4057 0C34.6716 0 35.8772 0.251907 37.0225 0.755725C38.1829 1.24427 39.1549 2 39.9385 3.0229C40.7372 4.0458 41.1592 5.21374 41.2044 6.52672ZM59.0561 5.15267L57.1125 11.1985H60.9779L59.1017 5.15267H59.0561ZM50.4437 17.6336L56.8186 0.366413H61.3396L67.7141 17.6336H63.0801L62.0403 14.542H56.0949L55.0102 17.6336H50.4437ZM77.7506 17.6336V0.366413H82.3164L88.2615 11.0153H88.3067V0.366413H92.4886V17.6336H87.9228L81.9777 6.87023H81.9322V17.6336H77.7506ZM104.395 17.6336V0.366413H111.719C114.326 0.366413 116.368 1.12977 117.845 2.65649C119.322 4.16794 120.06 6.25954 120.06 8.9313C120.06 11.7252 119.322 13.8779 117.845 15.3893C116.383 16.8855 114.341 17.6336 111.719 17.6336H104.395ZM108.825 4.23664V13.7634H110.928C112.616 13.7328 113.821 13.3511 114.544 12.6183C115.268 11.8702 115.629 10.6336 115.629 8.9084C115.629 7.35115 115.23 6.18321 114.431 5.40458C113.633 4.62595 112.465 4.23664 110.928 4.23664H108.825ZM137.908 5.15267L135.964 11.1985H139.829L137.953 5.15267H137.908ZM129.296 17.6336L135.67 0.366413H140.191L146.566 17.6336H141.932L140.892 14.542H134.947L133.862 17.6336H129.296ZM156.602 17.6336V0.366413H161.033V13.7634H168.99V17.6336H156.602ZM178.876 17.6336V0.366413H183.306V17.6336H178.876ZM194.171 11.8397H198.624C198.7 13.626 199.77 14.5191 201.834 14.5191C202.588 14.5191 203.228 14.374 203.756 14.084C204.298 13.7939 204.569 13.3511 204.569 12.7557C204.569 12.4656 204.487 12.2137 204.321 12C204.17 11.771 203.899 11.5725 203.507 11.4046C203.13 11.2366 202.791 11.1069 202.49 11.0153C202.203 10.9084 201.736 10.7786 201.088 10.626C200.44 10.458 199.966 10.3282 199.664 10.2366C199.107 10.0687 198.617 9.9084 198.195 9.75572C197.773 9.58779 197.328 9.36641 196.861 9.0916C196.394 8.81679 196.01 8.51145 195.708 8.17557C195.407 7.83969 195.158 7.41985 194.962 6.91603C194.767 6.41221 194.669 5.85496 194.669 5.24427C194.669 4.34351 194.872 3.54962 195.279 2.8626C195.701 2.16031 196.258 1.61069 196.952 1.21374C197.645 0.801527 198.383 0.496183 199.167 0.297711C199.966 0.0992378 200.787 0 201.631 0C203.5 0 205.097 0.473282 206.423 1.41985C207.764 2.36641 208.442 3.74809 208.457 5.56489H204.004C204.034 4.84733 203.778 4.32061 203.236 3.98473C202.708 3.64885 202.053 3.48092 201.269 3.48092C200.697 3.48092 200.192 3.60305 199.755 3.84733C199.333 4.07634 199.122 4.45038 199.122 4.96947C199.122 5.22901 199.205 5.45801 199.37 5.65649C199.536 5.83969 199.8 6.00763 200.162 6.16031C200.538 6.29771 200.892 6.41221 201.224 6.50382C201.555 6.59542 202.015 6.71756 202.603 6.87023C203.206 7.00763 203.688 7.12977 204.05 7.23664C204.758 7.43511 205.368 7.65649 205.881 7.90076C206.408 8.12977 206.92 8.43511 207.418 8.81679C207.93 9.18321 208.322 9.65649 208.593 10.2366C208.864 10.8168 209 11.4809 209 12.229C209 13.2824 208.789 14.1985 208.367 14.9771C207.96 15.7405 207.395 16.3359 206.672 16.7634C205.948 17.1908 205.165 17.5038 204.321 17.7023C203.492 17.9008 202.58 18 201.586 18C199.446 18 197.675 17.4962 196.274 16.4886C194.887 15.4656 194.186 13.916 194.171 11.8397Z" fill="white"/>
</svg>
